<svg width="18px" height="18px" viewBox="0 0 18 18" version="1.1" xmlns="http://www.w3.org/2000/svg" xmlns:xlink="http://www.w3.org/1999/xlink">
  <g id="recherche" stroke="none" stroke-width="1" fill="none" fill-rule="evenodd">
    <g transform="translate(-30.000000, -975.000000)" fill="#FFFFFF" fill-rule="nonzero" id="Menu-1">
      <g transform="translate(0.000000, 21.000000)">
        <g id="menu" transform="translate(0.000000, 322.000000)">
          <path d="M44.83125,634.201996 C46.8421875,635.91192 48,638.396947 48,641.018203 C48,645.969466 43.9640625,650 39,650 C34.0359375,650 30,645.969466 30,641.018203 C30,638.396947 31.1578125,635.91192 33.178125,634.201996 C33.3328125,634.070464 33.5296875,634 33.73125,634 C33.9796875,634 34.2140625,634.112742 34.378125,634.300646 C34.528125,634.474457 34.5984375,634.699941 34.5796875,634.925426 C34.5609375,635.155608 34.453125,635.362302 34.2796875,635.507927 C32.6484375,636.889019 31.7109375,638.899589 31.7109375,641.022901 C31.7109375,645.029947 34.9828125,648.294774 39.0046875,648.294774 C43.0265625,648.294774 46.2984375,645.034645 46.2984375,641.022901 C46.2984375,638.904287 45.3609375,636.893717 43.7296875,635.507927 C43.55625,635.362302 43.4484375,635.15091 43.4296875,634.925426 C43.4109375,634.695244 43.48125,634.474457 43.63125,634.300646 C43.790625,634.108045 44.0296875,634 44.278125,634 C44.4796875,634 44.6765625,634.070464 44.83125,634.201996 Z M39,642 C38.4486486,642 38,641.605701 38,641.12114 L38,632.87886 C38,632.394299 38.4486486,632 39,632 C39.5513514,632 40,632.394299 40,632.87886 L40,641.12114 C40,641.605701 39.5513514,642 39,642 Z" id="Combined-Shape"></path>
        </g>
      </g>
    </g>
  </g>
</svg>
