<svg width="12px" height="20px" viewBox="0 0 12 20" version="1.1" xmlns="http://www.w3.org/2000/svg" xmlns:xlink="http://www.w3.org/1999/xlink">
  <g id="recherche" stroke="none" stroke-width="1" fill="none" fill-rule="evenodd">
    <g transform="translate(-33.000000, -422.000000)" fill="#FFFFFF" fill-rule="nonzero" id="Menu-1">
      <g transform="translate(0.000000, 21.000000)">
        <g id="menu" transform="translate(0.000000, 322.000000)">
          <path d="M33,85.6666667 L33,98.1666667 C33,98.625 33.3724138,99 33.8275862,99 L44.1724138,99 C44.6275862,99 45,98.625 45,98.1666667 L45,85.6666667 C45,85.2083333 44.6275862,84.8333333 44.1724138,84.8333333 L33.8275862,84.8333333 C33.3724138,84.8333333 33,85.2083333 33,85.6666667 Z M42.362069,81.5520833 L41.4827586,81.5520833 C41.4827586,81.2604167 41.4310345,80.9791667 41.3431034,80.71875 C41.2344828,80.40625 41.0689655,80.125 40.8568966,79.8854167 C40.4017241,79.3697917 39.7396552,79 39,79 C38.2603448,79 37.5982759,79.3697917 37.1431034,79.8854167 C36.9310345,80.125 36.7655172,80.40625 36.6568966,80.71875 C36.5689655,80.9791667 36.5172414,81.2604167 36.5172414,81.5520833 L35.7672414,81.5520833 C35.2706897,81.5520833 34.862069,81.9635417 34.862069,82.4635417 L34.862069,83.2708333 C34.862069,83.328125 34.9086207,83.375 34.9655172,83.375 L43.0344828,83.375 C43.0913793,83.375 43.137931,83.328125 43.137931,83.2708333 L43.137931,82.3333333 C43.137931,81.9010417 42.7913793,81.5520833 42.362069,81.5520833 Z M39.1086207,82.359375 C38.5655172,82.4270833 38.1103448,81.96875 38.1827586,81.4270833 C38.2293103,81.0572917 38.5293103,80.7552083 38.8965517,80.7083333 C39.4396552,80.640625 39.8948276,81.0989583 39.8224138,81.640625 C39.7758621,82.015625 39.4758621,82.3125 39.1086207,82.359375 L39.1086207,82.359375 Z" id="Combined-Shape"></path>
        </g>
      </g>
    </g>
  </g>
</svg>
