<svg width="17px" height="17px" viewBox="0 0 17 17" version="1.1" xmlns="http://www.w3.org/2000/svg" xmlns:xlink="http://www.w3.org/1999/xlink">
  <g id="recherche" stroke="none" stroke-width="1" fill="none" fill-rule="evenodd">
    <g transform="translate(-30.000000, -385.000000)" fill="#FFFFFF" fill-rule="nonzero" id="Menu-1">
      <g transform="translate(0.000000, 21.000000)">
        <g id="menu" transform="translate(0.000000, 322.000000)">
          <path d="M46.415625,45.2603346 C47.1947917,45.6144782 47.1947917,46.1943884 46.415625,46.548532 L39.8635417,49.5366187 C39.1153646,49.8774819 37.8846354,49.8774819 37.1364583,49.5366187 L30.584375,46.548532 C29.8052083,46.1943884 29.8052083,45.6144782 30.584375,45.2603346 L37.1940104,42.2456871 C37.9111979,41.9181043 39.084375,41.9181043 39.8015625,42.2456871 L46.415625,45.2603346 Z M37.1364583,55.7783998 C37.8846354,56.1192631 39.1153646,56.1192631 39.8635417,55.7783998 L44.2817708,53.7642081 C44.4677083,53.680099 44.6846354,53.680099 44.8705729,53.7642081 L46.415625,54.4680685 C47.1947917,54.8222121 47.1947917,55.4021223 46.415625,55.7562659 L39.8635417,58.7443526 C39.1153646,59.0852158 37.8846354,59.0852158 37.1364583,58.7443526 L30.584375,55.7562659 C29.8052083,55.4021223 29.8052083,54.8222121 30.584375,54.4680685 L32.1294271,53.7642081 C32.3153646,53.680099 32.5322917,53.680099 32.7182292,53.7642081 L37.1364583,55.7783998 Z M46.4163103,49.6694162 C47.1952994,50.0078257 47.1952994,50.5619712 46.4118842,50.9003807 L39.8612939,53.7557107 C39.1132874,54.0814298 37.8828387,54.0814298 37.1348321,53.7557107 L30.5842418,50.9003807 C29.8052527,50.5619712 29.8052527,50.0078257 30.5842418,49.6694162 L31.9873074,49.0602792 C32.1732026,48.9799069 32.3856541,48.9799069 32.5715493,49.0602792 L37.3517097,51.1288071 C38.0288991,51.3487733 38.971653,51.3487733 39.6488424,51.1288071 L44.4290028,49.0602792 C44.6148979,48.9799069 44.8273495,48.9799069 45.0132446,49.0602792 L46.4163103,49.6694162 Z" id="Combined-Shape"></path>
        </g>
      </g>
    </g>
  </g>
</svg>
