<svg id="Calque_1" data-name="Calque 1" xmlns="http://www.w3.org/2000/svg" viewBox="0 0 131.62 37.32"><title>logo</title><g id="recherche"><g id="Menu-1"><g id="logo"><g id="Source-Code" style="isolation:isolate"><text transform="translate(32.69 22.13)" style="isolation:isolate;font-size:16.200000762939453px;fill:#2974fa;font-family:CircularStd-Bold, Circular Std;font-weight:700"><tspan style="letter-spacing:-0.004008728592073013em">S</tspan><tspan x="9.72" y="0" style="letter-spacing:-0.00198929388779563em">o</tspan><tspan x="19.15" y="0">u</tspan><tspan x="28.64" y="0" style="letter-spacing:-0.002019434704277382em">r</tspan><tspan x="34.94" y="0" style="letter-spacing:-0.004973234719489075em">c</tspan><tspan x="43.77" y="0">e </tspan><tspan x="56.73" y="0" style="letter-spacing:-0.01699942049570811em">C</tspan><tspan x="68.83" y="0">ode</tspan></text></g><g id="Open-source-library" style="isolation:isolate"><text transform="translate(32.88 35.22)" style="isolation:isolate;font-size:8px;fill:#545454;font-family:Montserrat-Regular, Montserrat">O<tspan x="6.71" y="0" style="letter-spacing:-0.010009765625em">P</tspan><tspan x="12.38" y="0" style="letter-spacing:-0.00006103515625em">EN SOURCE LIBRA</tspan><tspan x="87.96" y="0" style="letter-spacing:-0.00994873046875em">R</tspan><tspan x="93.66" y="0" style="letter-spacing:-0.00006103515625em">Y</tspan></text></g></g></g></g><path d="M12.92,22.55a1,1,0,0,1-.68-.25L5.49,16.55a1,1,0,0,1,0-1.59L12.24,9.2a1.06,1.06,0,0,1,1.48.12,1,1,0,0,1-.12,1.47l-5.83,5,5.83,5a1,1,0,0,1,.12,1.47A1,1,0,0,1,12.92,22.55Z" transform="translate(-5.12 -4.78)" style="fill:#43d4ff"/><path d="M26.26,22.55a1,1,0,0,1-.79-.37,1,1,0,0,1,.11-1.47l5.83-5-5.83-5A1,1,0,0,1,26.94,9.2L33.7,15a1.06,1.06,0,0,1,0,1.59L26.94,22.3A1,1,0,0,1,26.26,22.55Z" transform="translate(-5.12 -4.78)" style="fill:#43d4ff"/><path d="M17.2,26.87l-.22,0a1,1,0,0,1-.8-1.24l4.21-20a1,1,0,1,1,2,.43L18.22,26A1,1,0,0,1,17.2,26.87Z" transform="translate(-5.12 -4.78)" style="fill:#2974fa"/></svg>
