<svg width="18px" height="11px" viewBox="0 0 18 11" version="1.1" xmlns="http://www.w3.org/2000/svg" xmlns:xlink="http://www.w3.org/1999/xlink">
  <g id="recherche" stroke="none" stroke-width="1" fill="none" fill-rule="evenodd">
    <g transform="translate(-30.000000, -348.000000)" fill="#FFFFFF" fill-rule="nonzero" id="Menu-1">
      <g transform="translate(0.000000, 21.000000)">
        <g id="menu" transform="translate(0.000000, 322.000000)">
          <path d="M47.25,6.57142857 L30.75,6.57142857 C30.3375,6.57142857 30,6.21785714 30,5.78571429 C30,5.35357143 30.3375,5 30.75,5 L47.25,5 C47.6625,5 48,5.35357143 48,5.78571429 C48,6.21785714 47.6625,6.57142857 47.25,6.57142857 Z M47.25,11.2857143 L30.75,11.2857143 C30.3375,11.2857143 30,10.9321429 30,10.5 C30,10.0678571 30.3375,9.71428571 30.75,9.71428571 L47.25,9.71428571 C47.6625,9.71428571 48,10.0678571 48,10.5 C48,10.9321429 47.6625,11.2857143 47.25,11.2857143 Z M47.25,16 L30.75,16 C30.3375,16 30,15.6464286 30,15.2142857 C30,14.7821429 30.3375,14.4285714 30.75,14.4285714 L47.25,14.4285714 C47.6625,14.4285714 48,14.7821429 48,15.2142857 C48,15.6464286 47.6625,16 47.25,16 Z" id="Shape"></path>
        </g>
      </g>
    </g>
  </g>
</svg>
