<svg width="18px" height="18px" viewBox="0 0 18 18" version="1.1" xmlns="http://www.w3.org/2000/svg" xmlns:xlink="http://www.w3.org/1999/xlink">
  <g id="recherche" stroke="none" stroke-width="1" fill="none" fill-rule="evenodd">
    <g transform="translate(-30.000000, -465.000000)" fill="#FFFFFF" fill-rule="nonzero" id="Menu-1">
      <g transform="translate(0.000000, 21.000000)">
        <g id="menu" transform="translate(0.000000, 322.000000)">
          <path d="M39,122 C34.3485577,122 30.5235577,125.526442 30.0519231,130.052404 C30.0173077,130.363942 30,130.679808 30,131 C30,131.320192 30.0173077,131.636058 30.0519231,131.947596 C30.5235577,136.473558 34.3485577,140 39,140 C43.9716346,140 48,135.971635 48,131 C48,126.028365 43.9716346,122 39,122 Z M44.8759615,136.110096 C43.89375,135.737981 42.3014423,135.192788 41.3105769,134.898558 C41.2067308,134.868269 41.19375,134.859615 41.19375,134.435577 C41.19375,134.085096 41.3365385,133.730288 41.4793269,133.427404 C41.6350962,133.102885 41.8125,132.553365 41.8774038,132.060096 C42.0591346,131.848077 42.3100962,131.432692 42.4658654,130.636538 C42.6043269,129.935577 42.5394231,129.680288 42.4485577,129.442308 C42.4399038,129.416346 42.4269231,129.390385 42.4225962,129.36875 C42.3879808,129.204327 42.4355769,128.351923 42.5567308,127.689904 C42.6389423,127.235577 42.5350962,126.270673 41.9120192,125.470192 C41.5182692,124.963942 40.7610577,124.345192 39.3807692,124.258654 L38.6235577,124.258654 C37.2649038,124.345192 36.5120192,124.963942 36.1139423,125.470192 C35.4865385,126.270673 35.3826923,127.235577 35.4649038,127.689904 C35.5860577,128.351923 35.6336538,129.204327 35.5990385,129.36875 C35.5903846,129.399038 35.5817308,129.420673 35.5730769,129.446635 C35.4822115,129.684615 35.4129808,129.939904 35.5557692,130.640865 C35.7158654,131.437019 35.9625,131.852404 36.1442308,132.064423 C36.2091346,132.557692 36.3908654,133.102885 36.5423077,133.431731 C36.6548077,133.669712 36.7067308,133.994231 36.7067308,134.452885 C36.7067308,134.88125 36.6894231,134.885577 36.5942308,134.915865 C35.56875,135.21875 34.0456731,135.755288 33.1326923,136.11875 C31.8865385,134.695192 31.2115385,132.899519 31.2115385,131 C31.2115385,128.91875 32.0206731,126.962981 33.4918269,125.491827 C34.9629808,124.020673 36.91875,123.211538 39,123.211538 C41.08125,123.211538 43.0370192,124.020673 44.5081731,125.491827 C45.9793269,126.962981 46.7884615,128.91875 46.7884615,131 C46.7884615,132.899519 46.1134615,134.695192 44.8759615,136.110096 Z" id="Shape"></path>
        </g>
      </g>
    </g>
  </g>
</svg>
